<svg version="1.1" xmlns="http://www.w3.org/2000/svg" xmlns:xlink="http://www.w3.org/1999/xlink" width="120.71593" height="128.99207" viewBox="0,0,120.71593,128.99207">
  <!-- x="60.358" y="64.496" --><defs><linearGradient x1="240" y1="115.50397" x2="240" y2="244.49603" gradientUnits="userSpaceOnUse" id="color-1"><stop offset="0" stop-color="#23ba00"/><stop offset="1" stop-color="#30d60a"/></linearGradient><linearGradient x1="240" y1="123.51461" x2="240" y2="236.4854" gradientUnits="userSpaceOnUse" id="color-2"><stop offset="0" stop-color="#dc00ff"/><stop offset="1" stop-color="#a100ba"/></linearGradient></defs><g transform="translate(-179.64203,-115.50397)"><g data-paper-data="{&quot;isPaintingLayer&quot;:true}" fill-rule="nonzero" stroke="none" stroke-width="0" stroke-linecap="butt" stroke-linejoin="miter" stroke-miterlimit="10" stroke-dasharray="" stroke-dashoffset="0" style="mix-blend-mode: normal"><path d="M181.63601,214.48965c5.8256,1.61614 13.91656,0.43697 23.91307,-3.98996c30.10557,-13.33217 66.09375,-51.07209 80.38187,-84.29449c1.63278,-3.7965 2.91153,-7.36973 3.85091,-10.70123c11.72533,3.24777 14.28015,17.81274 4.73381,40.00967c-14.28935,33.22528 -50.28065,70.96848 -80.38883,84.3018c-26.67111,11.81123 -39.77879,0.5055 -32.49083,-25.32578z" fill="url(#color-1)"/><path d="M181.63601,214.48965c5.8256,1.61614 13.91656,0.43697 23.91307,-3.98996c30.10557,-13.33217 66.09375,-51.07209 80.38187,-84.29449c1.63278,-3.7965 -41.69594,100.27692 -71.80411,113.61024c-26.67111,11.81123 -39.77879,0.5055 -32.49083,-25.32578z" fill-opacity="0.25098" fill="#ffffff"/><path d="M207.7232,125.38065c-1.51245,5.45183 -0.40893,13.02367 3.73397,22.37881c12.47677,28.17399 47.79531,61.85318 78.88616,75.22457c3.55292,1.52802 6.89689,2.72472 10.01463,3.60383c-3.0394,10.97304 -16.66987,13.36393 -37.44265,4.43009c-31.09354,-13.37255 -66.41514,-47.05465 -78.89299,-75.23109c-11.05342,-24.95989 -0.47307,-37.22657 23.70088,-30.40621z" fill="url(#color-2)"/><path d="M207.7232,125.38065c-1.51245,5.45183 -0.40893,13.02367 3.73397,22.37881c12.47677,28.17399 47.79531,61.85318 78.88616,75.22457c0.01673,0.00719 0.05141,0.02213 0.05141,0.02213c0,0 -85.93577,-21.07099 -106.37241,-67.21929c-11.05342,-24.95989 -0.47307,-37.22657 23.70088,-30.40621z" fill-opacity="0.25098" fill="#ffffff"/></g></g></svg>